<svg width="100%" height="100%" viewBox="0 0 14 15" fill="none" xmlns="http://www.w3.org/2000/svg">
    <path fill-rule="evenodd" clip-rule="evenodd"
        d="M13.6864 6.82935C13.8489 6.99197 13.9416 7.21119 13.944 7.43878C13.9463 7.66637 13.8582 7.88371 13.6989 8.043L7.8987 13.8432C7.73941 14.0025 7.52207 14.0906 7.29447 14.0883C7.06688 14.0859 6.84767 13.9933 6.68504 13.8307L0.763427 7.90906C0.605402 7.74556 0.516645 7.52786 0.51627 7.30283C0.515895 7.0778 0.603935 6.86346 0.761425 6.70597C0.918916 6.54848 1.13326 6.46044 1.35828 6.46082C1.58331 6.46119 1.80102 6.54995 1.96451 6.70798L6.40582 11.1493L6.30285 1.20486C6.30049 0.977226 6.38866 0.759847 6.54796 0.600549C6.70726 0.441251 6.92464 0.353082 7.15228 0.355439C7.37992 0.357796 7.59917 0.450486 7.7618 0.613117C7.92443 0.775749 8.01712 0.995001 8.01948 1.22264L8.12245 11.1671L12.4727 6.81678C12.632 6.65754 12.8493 6.56941 13.0769 6.57176C13.3045 6.57412 13.5237 6.66677 13.6864 6.82935Z"
        fill="currentColor" />
</svg>