<svg width="48" height="48" viewBox="0 0 48 48" fill="none" xmlns="http://www.w3.org/2000/svg">
<path fill-rule="evenodd" clip-rule="evenodd" d="M45.1022 41.7868C45.1021 42.745 44.7125 43.6639 44.0192 44.3415C43.3259 45.019 42.3856 45.3998 41.4051 45.3999L5.69712 45.3999C4.71663 45.3998 3.77634 45.019 3.08303 44.3415C2.38972 43.6639 2.00015 42.745 2 41.7868L2 6.89036C2.01685 5.94298 2.41378 5.03998 3.10529 4.37582C3.7968 3.71167 4.72757 3.33952 5.69713 3.33952C6.66669 3.33952 7.59746 3.71167 8.28897 4.37582C8.98048 5.03998 9.3774 5.94298 9.39425 6.89036V33.0632L39.6877 3.45832C40.3811 2.78063 41.3216 2.3999 42.3023 2.3999C43.283 2.3999 44.2235 2.78063 44.917 3.45832C45.6104 4.13601 46 5.05515 46 6.01355C46 6.97194 45.6104 7.89109 44.917 8.56878L14.6236 38.1737H41.4051C42.3856 38.1738 43.3259 38.5546 44.0192 39.2321C44.7125 39.9097 45.1021 40.8286 45.1022 41.7868Z" fill="#25AAE1" stroke="white" stroke-opacity="0.95" stroke-width="4"/>
</svg>
