<svg width="74" height="72" viewBox="0 0 74 72" fill="none" xmlns="http://www.w3.org/2000/svg">
<path fill-rule="evenodd" clip-rule="evenodd" d="M5.34666 62.6224C5.34688 64.0485 5.93123 65.4162 6.97119 66.4247C8.01116 67.4331 9.4216 67.9998 10.8923 68L64.4543 68C65.9251 67.9998 67.3355 67.4331 68.3755 66.4247C69.4154 65.4162 69.9998 64.0485 70 62.6224L70 10.6835C69.9747 9.27342 69.3793 7.92941 68.3421 6.9409C67.3048 5.9524 65.9086 5.39849 64.4543 5.39849C63 5.39849 61.6038 5.9524 60.5666 6.9409C59.5293 7.92941 58.9339 9.27342 58.9086 10.6835V49.6385L13.4685 5.57531C12.4283 4.56666 11.0176 4 9.54652 4C8.07549 4 6.66471 4.56666 5.62454 5.57531C4.58436 6.58397 4 7.952 4 9.37845C4 10.8049 4.58436 12.1729 5.62454 13.1816L51.0647 57.2447H10.8923C9.4216 57.2449 8.01116 57.8116 6.97119 58.82C5.93123 59.8285 5.34688 61.1962 5.34666 62.6224Z" fill="#25AAE1" stroke="#231F20" stroke-width="7"/>
</svg>
