<svg width="38" height="38" viewBox="0 0 38 38" fill="none" xmlns="http://www.w3.org/2000/svg">
<path fill-rule="evenodd" clip-rule="evenodd" d="M2.69373 33.1431C2.69385 33.9008 2.99487 34.6274 3.53062 35.1631C4.06636 35.6989 4.79295 35.9999 5.5506 36L33.1431 36C33.9008 35.9999 34.6274 35.6989 35.1631 35.1631C35.6989 34.6274 35.9999 33.9008 36 33.1431L36 5.55059C35.987 4.8015 35.6803 4.0875 35.1459 3.56236C34.6116 3.03721 33.8923 2.74295 33.1431 2.74295C32.3939 2.74295 31.6747 3.03721 31.1403 3.56236C30.606 4.0875 30.2993 4.8015 30.2863 5.55059V26.2454L6.87772 2.83688C6.34187 2.30104 5.6151 2 4.8573 2C4.0995 2 3.37273 2.30104 2.83688 2.83688C2.30104 3.37273 2 4.0995 2 4.8573C2 5.6151 2.30104 6.34187 2.83688 6.87772L26.2454 30.2863H5.5506C4.79295 30.2864 4.06636 30.5874 3.53062 31.1231C2.99487 31.6589 2.69385 32.3855 2.69373 33.1431Z" fill="#25AAE1" stroke="white" stroke-width="3"/>
</svg>
