<svg width="24" height="25" viewBox="0 0 24 25" fill="none" xmlns="http://www.w3.org/2000/svg">
<path d="M2.40234 7.461L11.9987 12.2586L21.5951 7.461C21.5596 6.84953 21.2917 6.27478 20.8461 5.85447C20.4006 5.43415 19.8112 5.20008 19.1987 5.2002H4.79874C4.18625 5.20008 3.59688 5.43415 3.15136 5.85447C2.70583 6.27478 2.43787 6.84953 2.40234 7.461V7.461Z" fill="#25AAE1"/>
<path d="M21.5984 10.1416L11.9984 14.9416L2.39844 10.1416V17.2C2.39844 17.8365 2.65129 18.447 3.10138 18.8971C3.55147 19.3471 4.16192 19.6 4.79844 19.6H19.1984C19.835 19.6 20.4454 19.3471 20.8955 18.8971C21.3456 18.447 21.5984 17.8365 21.5984 17.2V10.1416Z" fill="#25AAE1"/>
</svg>
