<svg width="24" height="25" viewBox="0 0 24 25" fill="none" xmlns="http://www.w3.org/2000/svg">
    <path
        d="M2.39844 4.00078C2.39844 3.68252 2.52487 3.3773 2.74991 3.15225C2.97495 2.92721 3.28018 2.80078 3.59844 2.80078H6.18204C6.46608 2.80091 6.74088 2.9018 6.95753 3.08549C7.17419 3.26919 7.31865 3.52378 7.36524 3.80398L8.25324 9.12598C8.29567 9.37944 8.25561 9.63983 8.13895 9.86882C8.0223 10.0978 7.83522 10.2833 7.60524 10.398L5.74764 11.3256C6.41377 12.9764 7.40584 14.4759 8.66457 15.7347C9.9233 16.9934 11.4229 17.9855 13.0736 18.6516L14.0024 16.794C14.1171 16.5642 14.3024 16.3773 14.5311 16.2607C14.7598 16.144 15.02 16.1038 15.2732 16.146L20.5952 17.034C20.8754 17.0806 21.13 17.225 21.3137 17.4417C21.4974 17.6583 21.5983 17.9331 21.5984 18.2172V20.8008C21.5984 21.119 21.472 21.4243 21.247 21.6493C21.0219 21.8744 20.7167 22.0008 20.3984 22.0008H17.9984C9.38244 22.0008 2.39844 15.0168 2.39844 6.40078V4.00078Z"
        fill="#25AAE1" />
</svg>