<svg width="18" height="24" viewBox="0 0 18 24" fill="none" xmlns="http://www.w3.org/2000/svg">
<path fill-rule="evenodd" clip-rule="evenodd" d="M3.05826 2.65965C4.63365 1.08426 6.77033 0.199219 8.99826 0.199219C11.2262 0.199219 13.3629 1.08426 14.9383 2.65965C16.5136 4.23503 17.3987 6.37171 17.3987 8.59965C17.3987 10.8276 14.9383 14.5396 14.9383 14.5396L8.99826 23.5C8.99826 23.5 5.43832 18.4604 3.49829 15.5C1.55826 12.5396 1.72703 12.997 1.23715 11.8144C0.747273 10.6318 0.597656 9.70282 0.597656 8.59965C0.597656 7.49647 0.814957 6.4041 1.23715 5.38491C1.65934 4.36572 2.27816 3.43967 3.05826 2.65965ZM8.99826 10.9996C9.63478 10.9996 10.2452 10.7468 10.6953 10.2967C11.1454 9.84661 11.3983 9.23617 11.3983 8.59965C11.3983 7.96313 11.1454 7.35268 10.6953 6.90259C10.2452 6.4525 9.63478 6.19965 8.99826 6.19965C8.36174 6.19965 7.75129 6.4525 7.30121 6.90259C6.85112 7.35268 6.59826 7.96313 6.59826 8.59965C6.59826 9.23617 6.85112 9.84661 7.30121 10.2967C7.75129 10.7468 8.36174 10.9996 8.99826 10.9996Z" fill="#25AAE1"/>
</svg>
