<svg width="132" height="130" viewBox="0 0 132 130" fill="none" xmlns="http://www.w3.org/2000/svg">
<path fill-rule="evenodd" clip-rule="evenodd" d="M122.592 17.4632C122.592 14.9006 121.547 12.443 119.688 10.6309C117.829 8.81886 115.307 7.80069 112.677 7.8003L16.915 7.80029C14.2855 7.80068 11.7638 8.81886 9.9045 10.6309C8.04515 12.443 7.0004 14.9006 7 17.4632L7.00002 110.791C7.0452 113.325 8.10968 115.74 9.96419 117.516C11.8187 119.292 14.3149 120.287 16.915 120.287C19.5152 120.287 22.0114 119.292 23.8659 117.516C25.7204 115.74 26.7849 113.325 26.83 110.791V40.7937L108.071 119.97C109.931 121.782 112.453 122.8 115.083 122.8C117.714 122.8 120.236 121.782 122.096 119.97C123.955 118.157 125 115.699 125 113.136C125 110.573 123.955 108.115 122.096 106.302L40.8541 27.1262H112.677C115.307 27.1258 117.829 26.1076 119.688 24.2955C121.547 22.4835 122.592 20.0259 122.592 17.4632Z" fill="#25AAE1" stroke="#231F20" stroke-width="14"/>
</svg>
