<svg width="13" height="12" viewBox="0 0 13 12" fill="none" xmlns="http://www.w3.org/2000/svg">
    <path fill-rule="evenodd" clip-rule="evenodd"
        d="M0.744847 1.00831C0.744887 0.7409 0.851132 0.484457 1.04022 0.295371C1.2293 0.106286 1.48575 4.09732e-05 1.75315 5.95047e-07L11.4917 0C11.7591 4.03782e-05 12.0155 0.106286 12.2046 0.295371C12.3937 0.484457 12.5 0.740899 12.5 1.00831L12.5 10.7468C12.4954 11.0112 12.3872 11.2632 12.1986 11.4486C12.01 11.6339 11.7561 11.7378 11.4917 11.7378C11.2273 11.7378 10.9734 11.6339 10.7848 11.4486C10.5962 11.2632 10.488 11.0112 10.4834 10.7468V3.44279L2.22155 11.7046C2.03242 11.8938 1.77592 12 1.50846 12C1.241 12 0.984493 11.8938 0.795371 11.7046C0.606248 11.5155 0.5 11.259 0.5 10.9915C0.5 10.7241 0.606248 10.4676 0.795371 10.2785L9.05721 2.01661H1.75315C1.48575 2.01657 1.2293 1.91033 1.04022 1.72124C0.851132 1.53216 0.744887 1.27571 0.744847 1.00831Z"
        fill="currentColor" />
</svg>