<svg width="22" height="22" viewBox="0 0 22 22" fill="none" xmlns="http://www.w3.org/2000/svg">
    <path fill-rule="evenodd" clip-rule="evenodd"
        d="M0.763057 11.5942C0.504776 11.3358 0.357034 10.9881 0.352321 10.6275C0.347608 10.2669 0.48631 9.92295 0.737925 9.67126L9.90278 0.506399C10.1545 0.254783 10.4984 0.116083 10.859 0.120795C11.2197 0.125508 11.5674 0.273248 11.8257 0.531529L21.2333 9.93911C21.4844 10.1988 21.6259 10.5442 21.6275 10.9007C21.6291 11.2572 21.4905 11.5964 21.2417 11.8453C20.9928 12.0941 20.6536 12.2327 20.2971 12.2311C19.9405 12.2296 19.5952 12.088 19.3355 11.8369L12.2797 4.7811L12.4856 20.5373C12.4903 20.898 12.3515 21.242 12.0998 21.4937C11.8481 21.7454 11.5041 21.8842 11.1434 21.8795C10.7827 21.8748 10.435 21.727 10.1766 21.4686C9.91823 21.2102 9.77043 20.8624 9.76571 20.5018L9.55979 4.74555L2.68601 11.6193C2.43431 11.8709 2.09034 12.0097 1.72974 12.0049C1.36913 12.0002 1.02141 11.8525 0.763057 11.5942Z"
        fill="#25AAE1" />
</svg>